<?xml version="1.0" encoding="UTF-8" standalone="no"?>
<!DOCTYPE svg PUBLIC "-//W3C//DTD SVG 1.1//EN" "http://www.w3.org/Graphics/SVG/1.1/DTD/svg11.dtd">
<svg version="1.1" xmlns="http://www.w3.org/2000/svg" xmlns:xlink="http://www.w3.org/1999/xlink" preserveAspectRatio="xMidYMid meet" viewBox="0 0 200 90" width="200" height="90"><defs><path d="M75.4 4.01C71.4 2.28 56.35 32.03 56.32 36.3C56.3 39.14 65 54.26 82.41 81.66L121.99 81.92C93.6 31.13 78.07 5.16 75.4 4.01Z" id="a2IucPW2gk"></path><path d="M39.47 57.72C39.34 56.69 43.6 50.96 52.25 40.53L62.21 58.54C47.19 59.03 39.61 58.75 39.47 57.72Z" id="a1SoHFmbdP"></path><path d="M66.16 86.06L107.89 84.16" id="n3CwrOaBb6"></path><path d="M160.35 40.13C158.62 39.03 141.39 41.77 108.67 48.34L127.38 81.15C151.09 54.91 162.08 41.24 160.35 40.13Z" id="aZOxYHDNf"></path></defs><g><g><g><g></g><use xlink:href="#a2IucPW2gk" opacity="1" fill="#2980b9" fill-opacity="1"></use><g><use xlink:href="#a2IucPW2gk" opacity="1" fill-opacity="0" stroke="#000000" stroke-width="0" stroke-opacity="1"></use></g><g></g></g><g><use xlink:href="#a1SoHFmbdP" opacity="1" fill="#2980b9" fill-opacity="1"></use><g><use xlink:href="#a1SoHFmbdP" opacity="1" fill-opacity="0" stroke="#298ab3" stroke-width="0" stroke-opacity="1"></use></g></g><g><g><use xlink:href="#n3CwrOaBb6" opacity="1" fill-opacity="0" stroke="#000000" stroke-width="0" stroke-opacity="1"></use></g></g><g><use xlink:href="#aZOxYHDNf" opacity="1" fill="#2980b9" fill-opacity="1"></use><g><use xlink:href="#aZOxYHDNf" opacity="1" fill-opacity="0" stroke="#298ab3" stroke-width="0" stroke-opacity="1"></use></g></g></g></g></svg>